<?xml version="1.0" encoding="UTF-8"?>
<svg version="1.1" xmlns="http://www.w3.org/2000/svg" width="249" height="249">
<path d="M0 0 C82.17 0 164.34 0 249 0 C249 82.17 249 164.34 249 249 C166.83 249 84.66 249 0 249 C0 166.83 0 84.66 0 0 Z " fill="#FCFCFC" transform="translate(0,0)"/>
<path d="M0 0 C3.07469523 1.70251719 5.40613254 3.81226508 7 7 C7.30869938 9.29809536 7.50883648 11.59720129 7.71875 13.90625 C7.892155 16.05443933 7.892155 16.05443933 9 18 C10.32 18 11.64 18 13 18 C13.28875 17.360625 13.5775 16.72125 13.875 16.0625 C15 14 15 14 17 13 C23.36465362 12.55985381 28.12577048 13.73703282 34.0625 15.9375 C35.59293424 16.49413895 37.12547435 17.04502511 38.66015625 17.58984375 C39.32668213 17.83597412 39.99320801 18.08210449 40.67993164 18.33569336 C48.225838 20.4963175 56.02332318 20.21446195 63.80859375 20.31640625 C65.14380995 20.33700985 66.47902012 20.35800714 67.81422424 20.37937927 C71.30755702 20.43424863 74.80094518 20.48381094 78.29437256 20.53222656 C81.86752174 20.58270023 85.44059171 20.63825049 89.01367188 20.69335938 C96.00904577 20.80051031 103.0044914 20.90204862 110 21 C107.61209033 26.17015305 104.43393581 28.91630236 99.2890625 31.20703125 C92.72563472 33.5944992 86.96225984 34.55451627 80 34 C79.62875 35.1446875 79.62875 35.1446875 79.25 36.3125 C77.86694005 39.28607889 76.76995517 40.32123929 74 42 C71 43 71 43 67.5625 42.6875 C65.7990625 42.8421875 65.7990625 42.8421875 64 43 C61.80132223 45.79787307 61.80132223 45.79787307 60 49 C56.30008717 52.17135385 52.99580729 52.44648163 48.29296875 52.3046875 C44.79845923 51.84034041 42.12992028 50.59825716 39 49 C38.896875 49.721875 38.79375 50.44375 38.6875 51.1875 C37.94013068 54.24491993 36.71954811 56.38329635 35 59 C36.485 59.99 36.485 59.99 38 61 C38.41434251 63.32031805 38.74889902 65.65639085 39 68 C39.33 68.66 39.66 69.32 40 70 C40.7979789 76.1330378 40.38689225 81.08972237 36.73828125 86.1875 C26.50280718 96.85999431 10.32525147 99.86537853 -3.70703125 100.72265625 C-8.42854894 101.1203167 -12.54042421 101.54042421 -16 105 C-16.69011284 109.23926456 -15.9277759 111.48436681 -13.5 114.875 C-12.68006717 115.92724714 -11.85100278 116.97271807 -11 118 C-12.71866217 119.0384211 -14.45044598 120.05514635 -16.1875 121.0625 C-17.15042969 121.63097656 -18.11335938 122.19945312 -19.10546875 122.78515625 C-22.37968147 124.15935349 -23.6893043 124.13910378 -27 123 C-30.8574754 120.48815555 -32.90008014 118.49967216 -34 114 C-34.96565462 104.68833048 -31.38699874 99.27972803 -26 92 C-26.78375 92.61875 -27.5675 93.2375 -28.375 93.875 C-32 95 -32 95 -34.44921875 94.07421875 C-40.49203465 90.57859879 -45.72114831 86.83655508 -48 80 C-49.13452136 69.67585564 -49.13452136 69.67585564 -46 65.5 C-40.30522313 60.75435261 -34.82840024 59.45414891 -27.4609375 59.71484375 C-22.26705943 60.31667407 -18.4207729 61.68851732 -14.5625 65.25 C-12.70109476 68.52607321 -12.2926966 71.2681183 -12 75 C-11.34 75 -10.68 75 -10 75 C-10.04159602 67.38241304 -10.11385054 59.76556102 -10.20751953 52.1484375 C-10.23576107 49.55670812 -10.25695965 46.96489211 -10.27099609 44.37304688 C-10.29238062 40.64928729 -10.33901086 36.92657299 -10.390625 33.203125 C-10.39185364 32.04258606 -10.39308228 30.88204712 -10.39434814 29.68634033 C-10.41406677 28.60552185 -10.4337854 27.52470337 -10.45410156 26.41113281 C-10.46298401 25.46071106 -10.47186646 24.51028931 -10.48101807 23.53106689 C-11.1455893 20.28996321 -12.55766827 19.15145371 -15 17 C-16.61429923 13.77140153 -16.59570657 10.49006347 -16 7 C-12.16899219 0.32432595 -7.30245772 -1.12722502 0 0 Z " fill="#F2F2F2" transform="translate(129,10)"/>
<path d="M0 0 C2.86760926 1.83926578 3.41434779 4.25374945 4.5859375 7.34765625 C6.1505505 9.96364886 6.1505505 9.96364886 11.90625 11.22265625 C11.90625 21.12265625 11.90625 31.02265625 11.90625 41.22265625 C-2.88248239 45.65927597 -2.88248239 45.65927597 -8.46875 43.16015625 C-9.005 42.85078125 -9.54125 42.54140625 -10.09375 42.22265625 C-11.08375 42.71765625 -11.08375 42.71765625 -12.09375 43.22265625 C-15.86535651 43.64172364 -17.60345134 43.53466449 -20.84375 41.47265625 C-22.89754732 39.41885893 -24.04248212 37.89861087 -25.09375 35.22265625 C-25.733125 35.71765625 -26.3725 36.21265625 -27.03125 36.72265625 C-31.15092193 38.74045474 -34.58176559 38.95347063 -39.09375 38.22265625 C-42.8963529 36.21764745 -44.71165841 34.79579363 -47.09375 31.22265625 C-47.09375 30.23265625 -47.09375 29.24265625 -47.09375 28.22265625 C-47.67382812 28.34125 -48.25390625 28.45984375 -48.8515625 28.58203125 C-53.19336304 29.29849999 -55.45266589 29.52571419 -59.53125 27.59765625 C-62.18624884 25.13692562 -62.90384855 23.55438031 -64.09375 20.22265625 C-64.76019531 20.2690625 -65.42664063 20.31546875 -66.11328125 20.36328125 C-75.62319033 20.73569727 -84.70961609 18.47076956 -92.09375 12.22265625 C-92.814395 10.5786085 -93.48947851 8.91294563 -94.09375 7.22265625 C-93.39376892 7.2145694 -92.69378784 7.20648254 -91.97259521 7.19815063 C-85.32449184 7.11969442 -78.6765714 7.03225751 -72.02871323 6.93512917 C-68.61228109 6.88551961 -65.19587473 6.83919175 -61.77929688 6.80078125 C-57.83707404 6.75630897 -53.89514174 6.6968118 -49.953125 6.63671875 C-48.74638123 6.62516754 -47.53963745 6.61361633 -46.29632568 6.60171509 C-36.07839366 6.42673653 -26.36074742 5.4540699 -16.84375 1.59765625 C-10.98299042 -0.59527697 -6.11363636 -2.26980156 0 0 Z " fill="#040404" transform="translate(104.09375,23.77734375)"/>
<path d="M0 0 C1.53432186 0.54113999 3.06431112 1.09471286 4.58984375 1.66015625 C6.12027799 2.2167952 7.6528181 2.76768136 9.1875 3.3125 C9.85402588 3.55863037 10.52055176 3.80476074 11.20727539 4.05834961 C18.75318175 6.21897375 26.55066693 5.9371182 34.3359375 6.0390625 C35.6711537 6.0596661 37.00636387 6.08066339 38.34156799 6.10203552 C41.83490077 6.15690488 45.32828893 6.20646719 48.82171631 6.25488281 C52.39486549 6.30535648 55.96793546 6.36090674 59.54101562 6.41601562 C66.53638952 6.52316656 73.53183515 6.62470487 80.52734375 6.72265625 C78.13943408 11.8928093 74.96127956 14.63895861 69.81640625 16.9296875 C63.25297847 19.31715545 57.48960359 20.27717252 50.52734375 19.72265625 C50.27984375 20.48578125 50.03234375 21.24890625 49.77734375 22.03515625 C48.3942838 25.00873514 47.29729892 26.04389554 44.52734375 27.72265625 C41.52734375 28.72265625 41.52734375 28.72265625 38.08984375 28.41015625 C36.91421875 28.51328125 35.73859375 28.61640625 34.52734375 28.72265625 C32.32866598 31.52052932 32.32866598 31.52052932 30.52734375 34.72265625 C26.82743092 37.8940101 23.52315104 38.16913788 18.8203125 38.02734375 C15.32580298 37.56299666 12.65726403 36.32091341 9.52734375 34.72265625 C9.44484375 35.48578125 9.36234375 36.24890625 9.27734375 37.03515625 C8.35093379 40.35479195 7.45480938 40.99439341 4.52734375 42.72265625 C2.0546875 42.98046875 2.0546875 42.98046875 -0.53515625 42.84765625 C-3.67337973 42.70608226 -5.44564579 42.71365276 -8.47265625 43.72265625 C-15.13772716 44.26674367 -18.45998741 42.8264569 -25.47265625 40.72265625 C-25.47265625 30.82265625 -25.47265625 20.92265625 -25.47265625 10.72265625 C-23.82265625 10.06265625 -22.17265625 9.40265625 -20.47265625 8.72265625 C-18.6788887 6.61922329 -18.6788887 6.61922329 -17.28515625 4.16015625 C-13.0706316 -2.78991739 -7.30151805 -2.36398356 0 0 Z " fill="#040404" transform="translate(158.47265625,24.27734375)"/>
<path d="M0 0 C5.72553803 4.89056374 5.72553803 4.89056374 6.2734375 9.1015625 C6.49676563 14.65040762 6.01128104 18.61452002 2.73828125 23.1875 C-7.49719282 33.85999431 -23.67474853 36.86537853 -37.70703125 37.72265625 C-42.42854894 38.1203167 -46.54042421 38.54042421 -50 42 C-50.69011284 46.23926456 -49.9277759 48.48436681 -47.5 51.875 C-46.68006717 52.92724714 -45.85100278 53.97271807 -45 55 C-46.71866217 56.0384211 -48.45044598 57.05514635 -50.1875 58.0625 C-51.15042969 58.63097656 -52.11335938 59.19945312 -53.10546875 59.78515625 C-56.37968147 61.15935349 -57.6893043 61.13910378 -61 60 C-64.8574754 57.48815555 -66.90008014 55.49967216 -68 51 C-68.77272565 43.54871691 -67.11583958 39.2761387 -63.0625 33 C-57.63783316 26.75091571 -48.99129726 23.78110424 -41 23 C-38.94945538 22.87877188 -36.90007519 22.78721298 -34.84741211 22.70996094 C-24.88065834 22.31791501 -13.53886158 21.43357021 -6 14 C-6 12.68 -6 11.36 -6 10 C-9.63708491 9.57210766 -10.87891147 9.91927431 -14 12 C-17.12108853 14.08072569 -18.36291509 14.42789234 -22 14 C-21.67 12.68 -21.34 11.36 -21 10 C-21.99 11.32 -22.98 12.64 -24 14 C-28.875 13.125 -28.875 13.125 -30 12 C-30.29556784 8.7487538 -30.16657589 6.43726171 -29 3.375 C-21.68120973 -5.31606345 -9.52391811 -4.77135148 0 0 Z " fill="#070707" transform="translate(163,73)"/>
<path d="M0 0 C3.07469523 1.70251719 5.40613254 3.81226508 7 7 C7.37934197 12.02628116 7.02448301 14.92858056 4 19 C3.34 19.66 2.68 20.32 2 21 C1.67463206 23.70344115 1.67463206 23.70344115 1.69702148 26.90258789 C1.68037949 28.14049576 1.66373749 29.37840363 1.64659119 30.65382385 C1.63803052 32.01010093 1.62953288 33.36637841 1.62109375 34.72265625 C1.60492538 36.10746949 1.58774608 37.49227126 1.56959534 38.87705994 C1.52386389 42.52461462 1.48907935 46.17218441 1.45739746 49.81988525 C1.40555815 55.66262097 1.34052874 61.50518862 1.26918221 67.34771538 C1.24628018 69.39350262 1.23005447 71.43926829 1.21446228 73.48512268 C1.20097244 74.71987839 1.1874826 75.95463409 1.17358398 77.22680664 C1.16407211 78.31997696 1.15456024 79.41314728 1.14476013 80.53944397 C1 83 1 83 0 84 C-1.51928038 84.07179964 -3.04167482 84.08392007 -4.5625 84.0625 C-5.80193359 84.04896484 -5.80193359 84.04896484 -7.06640625 84.03515625 C-8.02353516 84.01775391 -8.02353516 84.01775391 -9 84 C-9.00142502 83.23436234 -9.00285004 82.46872467 -9.00431824 81.67988586 C-9.02216655 74.45547252 -9.06383283 67.2317712 -9.13209057 60.00767231 C-9.16634532 56.29385149 -9.19146804 52.58044134 -9.19555664 48.86645508 C-9.1998431 45.28045516 -9.2283321 41.69538136 -9.27343178 38.10967064 C-9.28639611 36.74343452 -9.29071815 35.3770875 -9.28615379 34.0107975 C-8.98507079 26.78343394 -8.98507079 26.78343394 -11.12466431 20.09140015 C-12.58293279 18.56876696 -12.58293279 18.56876696 -15 17 C-16.61429923 13.77140153 -16.59570657 10.49006347 -16 7 C-12.16899219 0.32432595 -7.30245772 -1.12722502 0 0 Z " fill="#080808" transform="translate(129,10)"/>
<path d="M0 0 C2.42858685 4.00716831 2.67049101 8.43717805 2 13 C-0.62288143 19.61422275 -4.65200939 22.91981737 -11 26 C-15.25432787 27.62665477 -19.56212056 29.09093954 -23.90429688 30.46484375 C-28.6147392 31.98806725 -32.48680311 33.32970894 -36 37 C-36.54723328 40.83063297 -36.69761157 42.98917507 -34.46875 46.21875 C-33.9840625 46.8065625 -33.499375 47.394375 -33 48 C-34.40751221 48.86916887 -35.8264521 49.71985149 -37.25 50.5625 C-38.03890625 51.03816406 -38.8278125 51.51382813 -39.640625 52.00390625 C-42 53 -42 53 -44.12890625 52.8046875 C-47.63669094 51.29612039 -50.30681583 48.38636835 -52 45 C-52.69953247 40.72331282 -52.86251765 36.76595767 -50.9296875 32.80859375 C-44.22654376 24.20229613 -32.39379488 20.13212821 -22.3046875 17.01953125 C-19.49335281 15.77587302 -17.92603063 14.38775031 -16 12 C-15.66582071 8.3324787 -15.66582071 8.3324787 -16 5 C-16.66 4.67 -17.32 4.34 -18 4 C-18 3.34 -18 2.68 -18 2 C-15.75256955 1.46818825 -13.50192898 0.94992874 -11.25 0.4375 C-9.37054688 0.00244141 -9.37054688 0.00244141 -7.453125 -0.44140625 C-2.72659176 -1.20599251 -2.72659176 -1.20599251 0 0 Z " fill="#080808" transform="translate(152,110)"/>
<path d="M0 0 C3.25773556 2.931962 3.92917259 4.30353047 4.375 8.6875 C4 12 4 12 2 14 C-1.01305957 13.61121812 -2.39685311 12.73543126 -5 11 C-4.01 12.485 -4.01 12.485 -3 14 C-8.38057409 14.51243563 -10.65519149 13.02247549 -15 10 C-16.32 10 -17.64 10 -19 10 C-18.84768418 12.41869379 -18.84768418 12.41869379 -18 15 C-12.52450583 19.20439731 -5.67538589 20.81565734 1 22 C-2.15827164 24.10551443 -5.40889542 25.88229719 -8.74609375 27.68359375 C-10.96870696 28.98172313 -12.97343445 30.4166014 -15 32 C-28.45605701 24.63182898 -28.45605701 24.63182898 -31 17 C-32.13452136 6.67585564 -32.13452136 6.67585564 -29 2.5 C-20.80142193 -4.33214839 -9.37841179 -5.3807017 0 0 Z " fill="#090909" transform="translate(112,73)"/>
<path d="M0 0 C2.97322978 2.57679915 4.62917943 4.26417611 5.453125 8.12109375 C5.72275086 13.67731229 4.64884263 18.70058852 1 23 C-2.14241553 25.19211176 -5.44039781 26.60991825 -9 28 C-9.97582031 28.3815625 -10.95164063 28.763125 -11.95703125 29.15625 C-15.93210579 30.64623778 -19.86192477 32.03765692 -24 33 C-24 35.64 -24 38.28 -24 41 C-28.95 43.475 -28.95 43.475 -34 46 C-37.74458332 41.00722223 -37.79424209 38.02858454 -37 32 C-34.64554866 25.87842652 -29.76833353 24.02165757 -24.125 21.38671875 C-23.09375 20.92910156 -22.0625 20.47148437 -21 20 C-20.0925 19.59394531 -19.185 19.18789062 -18.25 18.76953125 C-16.71933429 18.09005304 -15.18468556 17.41940627 -13.64453125 16.76171875 C-11.99971623 16.11452748 -11.99971623 16.11452748 -11 15 C-10.76623077 8.91531443 -10.76623077 8.91531443 -12 3 C-3.74179431 -0.88621444 -3.74179431 -0.88621444 0 0 Z " fill="#070707" transform="translate(143,139)"/>
<path d="M0 0 C0.495 0.37125 0.99 0.7425 1.5 1.125 C1.5 1.455 1.5 1.785 1.5 2.125 C-3.34241633 3.46083899 -7.43437617 4.37828119 -12.5 4.125 C-12.5 4.785 -12.5 5.445 -12.5 6.125 C-11.51 6.455 -10.52 6.785 -9.5 7.125 C-9.10036208 11.20130675 -8.89071332 13.34646702 -11.46875 16.640625 C-15.19974273 19.69850049 -18.80136742 21.1043197 -23.3125 22.6875 C-29.26491901 24.83795481 -34.88201687 27.1974991 -40.5 30.125 C-41.16 29.465 -41.82 28.805 -42.5 28.125 C-43.16 27.795 -43.82 27.465 -44.5 27.125 C-44.5 26.465 -44.5 25.805 -44.5 25.125 C-43.015 25.00125 -43.015 25.00125 -41.5 24.875 C-37.02543052 24.26191993 -33.40429315 22.30531955 -29.5 20.125 C-29.8609375 19.68929687 -30.221875 19.25359375 -30.59375 18.8046875 C-32.92473017 15.81326295 -34.38533233 13.70980511 -35.125 9.9375 C-34.5 7.125 -34.5 7.125 -32.3125 4.8125 C-27.65533571 2.01820142 -23.03620582 1.97645985 -17.6875 1.6875 C-13.59001189 1.43006619 -9.81615304 1.09535287 -5.875 -0.0625 C-2.5 -0.875 -2.5 -0.875 0 0 Z " fill="#F2F2F2" transform="translate(146.5,107.875)"/>
<path d="M0 0 C0.13637859 1.87293261 0.23261351 3.74880869 0.3125 5.625 C0.37050781 6.66914063 0.42851562 7.71328125 0.48828125 8.7890625 C-0.145482 12.95668963 -1.83527496 15.35614884 -5 18 C-7.6713752 19.57436776 -10.43049693 20.7417727 -13.3125 21.875 C-14.42334961 22.33519531 -14.42334961 22.33519531 -15.55664062 22.8046875 C-17.36500895 23.55136862 -19.18171128 24.27781247 -21 25 C-21 27.64 -21 30.28 -21 33 C-25.03578215 33.46927699 -26.58724419 33.29858931 -29.9375 30.875 C-32 28 -32 28 -32.0625 25 C-29.71708222 18.3776439 -25.33677808 15.69694162 -19.375 12.6875 C-18.694375 12.32849609 -18.01375 11.96949219 -17.3125 11.59960938 C-12.30144345 9 -12.30144345 9 -10 9 C-10 6.69 -10 4.38 -10 2 C-3.375 -1.125 -3.375 -1.125 0 0 Z " fill="#0B0B0B" transform="translate(141,168)"/>
<path d="M0 0 C0.33 0 0.66 0 1 0 C1 20.46 1 40.92 1 62 C1.66 62.33 2.32 62.66 3 63 C3 63.66 3 64.32 3 65 C2.3709375 65.09796875 1.741875 65.1959375 1.09375 65.296875 C-4.94238089 66.35137979 -9.64440845 68.02467136 -15 71 C-15.99 70.34 -16.98 69.68 -18 69 C-15.03 67.35 -12.06 65.7 -9 64 C-9 63.67 -9 63.34 -9 63 C-9.556875 62.91363281 -10.11375 62.82726562 -10.6875 62.73828125 C-16.49101703 61.66972828 -21.53792346 60.00676261 -26 56 C-27 53.1875 -27 53.1875 -27 51 C-24.875 50.25 -24.875 50.25 -22 50 C-19.98079663 51.30406884 -17.98075027 52.63823419 -16 54 C-13.24741188 54.33709062 -13.24741188 54.33709062 -11 54 C-11.66 52.68 -12.32 51.36 -13 50 C-12.2575 50.680625 -11.515 51.36125 -10.75 52.0625 C-8.26262397 54.20998306 -8.26262397 54.20998306 -5.8125 54 C-3.49384505 52.72074209 -2.9406594 51.43003677 -2 49 C-2 50.32 -2 51.64 -2 53 C-1.34 53 -0.68 53 0 53 C0 35.51 0 18.02 0 0 Z " fill="#D2D2D2" transform="translate(119,32)"/>
<path d="M0 0 C0 0.66 0 1.32 0 2 C-2.31 2.66 -4.62 3.32 -7 4 C-6.67 4.495 -6.34 4.99 -6 5.5 C-4.63314 8.91714999 -3.99677344 12.40802798 -5 16 C-9.10977776 20.12537464 -14.10278233 21.75688277 -19.47265625 23.62304688 C-24.03607608 25.31473887 -26.7869629 27.37369183 -30 31 C-30.66 31.66 -31.32 32.32 -32 33 C-32.8125 31.3125 -32.8125 31.3125 -33 29 C-29.45784143 24.54373599 -24.85222091 21.82945884 -20 19 C-20.48339844 18.57460937 -20.96679688 18.14921875 -21.46484375 17.7109375 C-23 16 -23 16 -23.5625 12.625 C-22.93333671 8.57039213 -21.95393294 7.62700284 -18.80249023 5.16845703 C-15.80489164 3.22527582 -12.64763991 2.16631989 -9.25 1.125 C-8.57839844 0.90070313 -7.90679687 0.67640625 -7.21484375 0.4453125 C-2.27634692 -1.13817346 -2.27634692 -1.13817346 0 0 Z " fill="#EBEBEB" transform="translate(138,138)"/>
<path d="M0 0 C1.55024464 3.10048928 1.28992015 5.57894218 1 9 C-3.09687266 16.82130236 -13.72734194 19.38237001 -21.5 22.375 C-22.56009277 22.78770142 -22.56009277 22.78770142 -23.64160156 23.20874023 C-25.40592847 23.86747644 -27.20154207 24.4411334 -29 25 C-29.66 24.67 -30.32 24.34 -31 24 C-25.90871022 19.06918068 -20.75356797 15.54057856 -14.41796875 12.359375 C-10.76512509 10.30575692 -9.29853979 8.97522998 -8.0625 4.9375 C-7 2 -7 2 -5.0625 0.625 C-3 0 -3 0 0 0 Z " fill="#0C0C0C" transform="translate(138,188)"/>
<path d="M0 0 C0.66 0 1.32 0 2 0 C1.80859375 1.859375 1.80859375 1.859375 1 4 C-1.21484375 5.265625 -1.21484375 5.265625 -3.9375 6.25 C-4.83339844 6.58515625 -5.72929687 6.9203125 -6.65234375 7.265625 C-9 8 -9 8 -11 8 C-11 10.31 -11 12.62 -11 15 C-14.3 16.65 -17.6 18.3 -21 20 C-21.9827968 17.05160959 -22 15.05869028 -22 12 C-22.33 11.34 -22.66 10.68 -23 10 C-16.47347211 6.91978181 -9.94013199 4.15494647 -3.1171875 1.796875 C-1.04600698 1.18357322 -1.04600698 1.18357322 0 0 Z " fill="#E2E2E2" transform="translate(142,162)"/>
<path d="M0 0 C0.66 0.33 1.32 0.66 2 1 C1.01 2.485 1.01 2.485 0 4 C4.33266589 3.52807557 4.33266589 3.52807557 8.0625 1.4375 C10.50864595 -0.37738248 12.02514639 -0.24790447 15 0 C15.33 1.65 15.66 3.3 16 5 C11.35944002 9.19147353 5.40154244 13 -1 13 C-1 12.34 -1 11.68 -1 11 C-1.66 10.67 -2.32 10.34 -3 10 C-3.36923077 4.58461538 -3.36923077 4.58461538 -1.5 1.625 C-1.005 1.08875 -0.51 0.5525 0 0 Z " fill="#E4E4E4" transform="translate(142,82)"/>
<path d="M0 0 C0.38297872 21.72340426 0.38297872 21.72340426 -2 31 C-2.33 31 -2.66 31 -3 31 C-4.28120925 23.57584997 -5.21680725 16.28120348 -5.3125 8.75 C-5.32925781 7.50734375 -5.34601563 6.2646875 -5.36328125 4.984375 C-5.24339844 3.99953125 -5.12351562 3.0146875 -5 2 C-2 0 -2 0 0 0 Z " fill="#0C0C0C" transform="translate(127,208)"/>
<path d="M0 0 C2.97 0 5.94 0 9 0 C9 3.96 9 7.92 9 12 C6.03 12.66 3.06 13.32 0 14 C0 9.38 0 4.76 0 0 Z " fill="#040404" transform="translate(120,113)"/>
<path d="M0 0 C0.51046875 0.38929688 1.0209375 0.77859375 1.546875 1.1796875 C0.433125 1.5509375 -0.680625 1.9221875 -1.828125 2.3046875 C-3.78744023 3.07243846 -3.78744023 3.07243846 -5.453125 4.1796875 C-6.18392766 6.15715353 -6.84734247 8.16041239 -7.453125 10.1796875 C-9.31701444 12.11934481 -11.27744954 13.57157955 -13.453125 15.1796875 C-16.45929769 12.17351481 -16.04897816 9.35587152 -16.453125 5.1796875 C-14.21061622 4.11839324 -11.96163411 3.08087517 -9.703125 2.0546875 C-9.06890625 1.75175781 -8.4346875 1.44882813 -7.78125 1.13671875 C-3.00217062 -1.00391056 -3.00217062 -1.00391056 0 0 Z " fill="#E3E3E3" transform="translate(136.453125,186.8203125)"/>
<path d="M0 0 C0 3.63 0 7.26 0 11 C-4.455 12.485 -4.455 12.485 -9 14 C-9 10.37 -9 6.74 -9 3 C-2.25 0 -2.25 0 0 0 Z " fill="#060606" transform="translate(129,143)"/>
<path d="M0 0 C2 1.5625 2 1.5625 4 4 C4.375 7.625 4.375 7.625 4 11 C3.34 11.66 2.68 12.32 2 13 C-1.38828322 12.66117168 -3.39406957 11.08474434 -6 9 C-6.66 8.67 -7.32 8.34 -8 8 C-7.25 6.0625 -7.25 6.0625 -6 4 C-4.67696283 3.6278958 -3.34262065 3.29369827 -2 3 C-1.34 2.01 -0.68 1.02 0 0 Z " fill="#191919" transform="translate(112,74)"/>
<path d="M0 0 C5.67026425 0.27001258 8.6681659 2.62116941 13 6 C12.67 7.32 12.34 8.64 12 10 C9.52800849 10.89991601 8.38603412 11.1504029 5.89453125 10.1796875 C0.24772139 6.64116125 0.24772139 6.64116125 -1.0625 3.25 C-1 1 -1 1 0 0 Z " fill="#F1F1F1" transform="translate(93,82)"/>
<path d="M0 0 C0.433125 0.66 0.86625 1.32 1.3125 2 C2.1478125 2.99 2.1478125 2.99 3 4 C3.99 4 4.98 4 6 4 C4.92598892 6.91517292 4.22189824 8.77810176 2 11 C0.68 11 -0.64 11 -2 11 C-2 20.9 -2 30.8 -2 41 C-2.33 41 -2.66 41 -3 41 C-3.2170816 36.07099318 -3.41393235 31.14175089 -3.59204102 26.21118164 C-3.65548549 24.53387852 -3.72446244 22.8567752 -3.79907227 21.17993164 C-3.90534011 18.77000511 -3.99171366 16.36006123 -4.07421875 13.94921875 C-4.11157639 13.19912033 -4.14893402 12.44902191 -4.18742371 11.67619324 C-4.33918903 6.42555102 -4.33918903 6.42555102 -2.55786133 4.19067383 C-2.04376709 3.79775146 -1.52967285 3.4048291 -1 3 C-0.67 2.01 -0.34 1.02 0 0 Z " fill="#E7E7E7" transform="translate(135,24)"/>
<path d="M0 0 C0 4.95 0 9.9 0 15 C-5.07692308 12.46153846 -5.07692308 12.46153846 -7 9 C-7.39615205 5.76475829 -7.58248669 3.87373003 -5.75 1.125 C-4 0 -4 0 0 0 Z " fill="#F6F6F6" transform="translate(119,112)"/>
<path d="M0 0 C-0.046875 1.81640625 -0.046875 1.81640625 -1 4 C-3.43897293 5.16297368 -5.70583359 6.08225762 -8.25 6.9375 C-13.70367043 8.78166023 -17.08711377 10.55159102 -21 15 C-21.66 15.66 -22.32 16.32 -23 17 C-23.8125 15.3125 -23.8125 15.3125 -24 13 C-19.96302496 7.92122496 -14.14790416 4.04930139 -8 2 C-6.989375 1.649375 -5.97875 1.29875 -4.9375 0.9375 C-2 0 -2 0 0 0 Z " fill="#E3E3E3" transform="translate(129,154)"/>
<path d="M0 0 C0.99386719 0.00902344 1.98773438 0.01804687 3.01171875 0.02734375 C4.15060547 0.04474609 4.15060547 0.04474609 5.3125 0.0625 C5.3125 1.0525 5.3125 2.0425 5.3125 3.0625 C6.3025 3.7225 7.2925 4.3825 8.3125 5.0625 C8.3125 6.3825 8.3125 7.7025 8.3125 9.0625 C5.43351339 8.38355531 2.66909825 7.5309916 -0.125 6.5625 C-3.29423369 5.49039949 -6.37564809 4.59666966 -9.6875 4.0625 C-9.3575 3.0725 -9.0275 2.0825 -8.6875 1.0625 C-5.53819107 0.01273036 -3.29935544 -0.03881595 0 0 Z " fill="#EFEFEF" transform="translate(158.6875,65.9375)"/>
<path d="M0 0 C2.14082246 4.28164492 2.2351031 6.25783396 2.1953125 10.953125 C2.1924826 11.61334656 2.18965271 12.27356812 2.18673706 12.95379639 C2.17558415 15.05271897 2.15048946 17.15120742 2.125 19.25 C2.11496384 20.67707715 2.1058391 22.10416102 2.09765625 23.53125 C2.07566111 27.02097328 2.04116536 30.51044423 2 34 C2.99 34 3.98 34 5 34 C5 34.66 5 35.32 5 36 C3.515 36.495 3.515 36.495 2 37 C1.34 37.66 0.68 38.32 0 39 C0 26.13 0 13.26 0 0 Z " fill="#FDFDFD" transform="translate(130,31)"/>
<path d="M0 0 C3 1 3 1 4.0625 3 C4.371875 3.66 4.68125 4.32 5 5 C5.66 5.33 6.32 5.66 7 6 C6.34 7.65 5.68 9.3 5 11 C2.125 10.6875 2.125 10.6875 -1 10 C-3 7 -3 7 -2.75 5 C-2 3 -2 3 0 0 Z " fill="#EBEBEB" transform="translate(111,24)"/>
<path d="M0 0 C0 4.95 0 9.9 0 15 C-0.33 15 -0.66 15 -1 15 C-1 11.04 -1 7.08 -1 3 C-3.97 3 -6.94 3 -10 3 C-10 7.95 -10 12.9 -10 18 C-10.66 17.67 -11.32 17.34 -12 17 C-11.67 12.05 -11.34 7.1 -11 2 C-11.66 1.67 -12.32 1.34 -13 1 C-8.59085217 -0.10228696 -4.51617599 -0.07654536 0 0 Z " fill="#A8A8A8" transform="translate(130,110)"/>
<path d="M0 0 C2.25026938 1.51256314 4.01827719 3.11045035 6 5 C6 5.66 6 6.32 6 7 C0.65155992 6.46515599 -3.35796103 4.53309233 -8 2 C-8 1.34 -8 0.68 -8 0 C-4.55442687 -1.14852438 -3.41628713 -1.11227953 0 0 Z " fill="#191919" transform="translate(137,206)"/>
<path d="M0 0 C0.33 0.66 0.66 1.32 1 2 C1.66 2.33 2.32 2.66 3 3 C-0.96 4.98 -4.92 6.96 -9 9 C-9.66 8.34 -10.32 7.68 -11 7 C-11.66 6.67 -12.32 6.34 -13 6 C-13 5.34 -13 4.68 -13 4 C-11.96875 3.896875 -10.9375 3.79375 -9.875 3.6875 C-6.04916055 3.00872203 -3.36629975 1.88841205 0 0 Z " fill="#E3E3E3" transform="translate(115,129)"/>
<path d="M0 0 C0.66 0.33 1.32 0.66 2 1 C2.3125 3.6875 2.3125 3.6875 2 7 C-0.87903159 10.53709595 -4.00899852 12.83345634 -8 15 C-8.33 13.68 -8.66 12.36 -9 11 C-2.25 7 -2.25 7 0 7 C-0.185625 6.030625 -0.37125 5.06125 -0.5625 4.0625 C-0.706875 3.051875 -0.85125 2.04125 -1 1 C-0.67 0.67 -0.34 0.34 0 0 Z " fill="#EFEFEF" transform="translate(119,173)"/>
<path d="M0 0 C0.99 0.66 1.98 1.32 3 2 C3.29296875 4.1640625 3.29296875 4.1640625 3.1875 6.625 C3.16042969 7.44226563 3.13335937 8.25953125 3.10546875 9.1015625 C3.07066406 9.72804687 3.03585938 10.35453125 3 11 C-0.875 10.125 -0.875 10.125 -2 9 C-2.1875 5.5625 -2.1875 5.5625 -2 2 C-1.34 1.34 -0.68 0.68 0 0 Z " fill="#F9F9F9" transform="translate(117,145)"/>
<path d="M0 0 C0.99 0.33 1.98 0.66 3 1 C3.19402245 5.17148265 3.01430083 8.28944583 1 12 C0.01 12.33 -0.98 12.66 -2 13 C-2 9.04 -2 5.08 -2 1 C-1.34 0.67 -0.68 0.34 0 0 Z " fill="#FBFBFB" transform="translate(132,70)"/>
<path d="M0 0 C2.5 1.625 2.5 1.625 5 4 C5.3125 7.25 5.3125 7.25 5 10 C4.01 10.33 3.02 10.66 2 11 C1.67 10.67 1.34 10.34 1 10 C0.67 10.66 0.34 11.32 0 12 C-0.66 12 -1.32 12 -2 12 C-1.67 9.69 -1.34 7.38 -1 5 C-0.01 4.67 0.98 4.34 2 4 C1.34 2.68 0.68 1.36 0 0 Z " fill="#C3C3C3" transform="translate(106,82)"/>
<path d="M0 0 C2.375 0.1875 2.375 0.1875 5 1 C6.3125 3.5625 6.3125 3.5625 7 6 C4.125 6.625 4.125 6.625 1 7 C0.34 6.34 -0.32 5.68 -1 5 C-0.625 2.375 -0.625 2.375 0 0 Z " fill="#F9F9F9" transform="translate(93,82)"/>
<path d="M0 0 C-0.25 2.375 -0.25 2.375 -1 5 C-3.56310828 6.7941758 -4.83119306 7 -8 7 C-7.8125 4.625 -7.8125 4.625 -7 2 C-4.54236535 0.67665827 -2.79402354 0 0 0 Z " fill="#161616" transform="translate(129,171)"/>
<path d="M0 0 C2.3431213 0.25561323 4.67843403 0.59270772 7 1 C7.33 1.66 7.66 2.32 8 3 C4.48812804 5.40814077 2.27343092 6.36629408 -2 6 C-1.34 4.02 -0.68 2.04 0 0 Z " fill="#0F0F0F" transform="translate(143,81)"/>
<path d="M0 0 C0.66 0.33 1.32 0.66 2 1 C2.59355614 3.64860427 2.74209269 6.29197322 3 9 C1.02 9.99 -0.96 10.98 -3 12 C-3.99 11.01 -4.98 10.02 -6 9 C-2.535 8.505 -2.535 8.505 1 8 C0.67 5.36 0.34 2.72 0 0 Z " fill="#F0F0F0" transform="translate(119,193)"/>
<path d="M0 0 C-0.125 2.3125 -0.125 2.3125 -1 5 C-4.0625 6.8125 -4.0625 6.8125 -7 8 C-7 6.02 -7 4.04 -7 2 C-2.25 0 -2.25 0 0 0 Z " fill="#0E0E0E" transform="translate(128,192)"/>
<path d="M0 0 C0.33 0.66 0.66 1.32 1 2 C1.66 2.33 2.32 2.66 3 3 C2 5 2 5 -0.28515625 5.8515625 C-1.65994141 6.23441406 -1.65994141 6.23441406 -3.0625 6.625 C-3.98160156 6.88539063 -4.90070313 7.14578125 -5.84765625 7.4140625 C-6.55792969 7.60742188 -7.26820312 7.80078125 -8 8 C-3.375 2.25 -3.375 2.25 0 0 Z " fill="#131313" transform="translate(115,205)"/>
<path d="M0 0 C0.66 0.33 1.32 0.66 2 1 C2 1.66 2 2.32 2 3 C-1.96 4.98 -1.96 4.98 -6 7 C-6.99 6.34 -7.98 5.68 -9 5 C-7.54735962 4.1361871 -6.0876837 3.28419546 -4.625 2.4375 C-3.40683594 1.72400391 -3.40683594 1.72400391 -2.1640625 0.99609375 C-1.44992188 0.66738281 -0.73578125 0.33867188 0 0 Z " fill="#E7E7E7" transform="translate(110,96)"/>
<path d="M0 0 C0.66 0.33 1.32 0.66 2 1 C2.125 3.375 2.125 3.375 2 6 C1.34 6.66 0.68 7.32 0 8 C-2.125 7.625 -2.125 7.625 -4 7 C-1.125 1.125 -1.125 1.125 0 0 Z " fill="#050505" transform="translate(114,79)"/>
<path d="M0 0 C0.33 0.66 0.66 1.32 1 2 C2.97888961 2.72693904 4.97954558 3.39816251 7 4 C4.82575883 6.50037734 3.26954202 7.43628586 0 8 C0 5.36 0 2.72 0 0 Z " fill="#F1F1F1" transform="translate(128,206)"/>
<path d="M0 0 C0.515625 0.391875 1.03125 0.78375 1.5625 1.1875 C0.428125 1.579375 -0.70625 1.97125 -1.875 2.375 C-5.64089051 3.77360882 -5.64089051 3.77360882 -6.375 6.875 C-6.395625 7.638125 -6.41625 8.40125 -6.4375 9.1875 C-6.7675 9.1875 -7.0975 9.1875 -7.4375 9.1875 C-7.4375 7.2075 -7.4375 5.2275 -7.4375 3.1875 C-8.0975 2.8575 -8.7575 2.5275 -9.4375 2.1875 C-3.0375 -1.0125 -3.0375 -1.0125 0 0 Z " fill="#CBCBCB" transform="translate(136.4375,186.8125)"/>
<path d="M0 0 C1.65 1.32 3.3 2.64 5 4 C4.34 4.66 3.68 5.32 3 6 C2.34 5.67 1.68 5.34 1 5 C-1.09821215 5.39938767 -1.09821215 5.39938767 -3 6 C-3 4.68 -3 3.36 -3 2 C-2.01 2 -1.02 2 0 2 C0 1.34 0 0.68 0 0 Z " fill="#F3F3F3" transform="translate(85,97)"/>
<path d="M0 0 C0.495 0.37125 0.99 0.7425 1.5 1.125 C1.5 1.455 1.5 1.785 1.5 2.125 C-1.8 2.785 -5.1 3.445 -8.5 4.125 C-8.5 3.465 -8.5 2.805 -8.5 2.125 C-9.16 1.795 -9.82 1.465 -10.5 1.125 C-3.11538462 -1.09038462 -3.11538462 -1.09038462 0 0 Z " fill="#D8D8D8" transform="translate(146.5,107.875)"/>
<path d="M0 0 C2.05078125 0.03255208 4.1015625 0.06510417 6.15234375 0.09765625 C6.15234375 0.75765625 6.15234375 1.41765625 6.15234375 2.09765625 C4.50234375 2.09765625 2.85234375 2.09765625 1.15234375 2.09765625 C0.82234375 3.08765625 0.49234375 4.07765625 0.15234375 5.09765625 C-0.50765625 5.09765625 -1.16765625 5.09765625 -1.84765625 5.09765625 C-2.41015625 3.16015625 -2.41015625 3.16015625 -2.84765625 1.09765625 C-1.84765625 0.09765625 -1.84765625 0.09765625 0 0 Z " fill="#F8F8F8" transform="translate(131.84765625,109.90234375)"/>
<path d="M0 0 C0 3 0 3 -1.875 5.0625 C-2.57625 5.701875 -3.2775 6.34125 -4 7 C-4.66 7.66 -5.32 8.32 -6 9 C-6.8125 7.3125 -6.8125 7.3125 -7 5 C-2.79545455 0 -2.79545455 0 0 0 Z " fill="#EFEFEF" transform="translate(112,162)"/>
<path d="M0 0 C2.64 0 5.28 0 8 0 C7.67 0.66 7.34 1.32 7 2 C4.93359375 2.4140625 4.93359375 2.4140625 2.4375 2.625 C1.61121094 2.69976562 0.78492188 2.77453125 -0.06640625 2.8515625 C-1.02353516 2.92503906 -1.02353516 2.92503906 -2 3 C-1.34 2.67 -0.68 2.34 0 2 C0 1.34 0 0.68 0 0 Z " fill="#FAFAFA" transform="translate(142,68)"/>
<path d="M0 0 C0.99 0.33 1.98 0.66 3 1 C3 3.31 3 5.62 3 8 C2.34 8 1.68 8 1 8 C0.67 5.36 0.34 2.72 0 0 Z " fill="#FBFBFB" transform="translate(116,77)"/>
</svg>
